<svg width="64" height="65" viewBox="0 0 64 65" fill="none" xmlns="http://www.w3.org/2000/svg">
<path fill-rule="evenodd" clip-rule="evenodd" d="M54.8571 29.92H55.52C56.0822 29.917 56.6393 30.0255 57.1593 30.2392C57.6792 30.4529 58.1516 30.7676 58.5491 31.1651C58.9466 31.5627 59.2614 32.0351 59.4751 32.555C59.6888 33.075 59.7973 33.6321 59.7943 34.1943V39.4514C59.7973 39.7344 59.7439 40.0152 59.637 40.2772C59.5301 40.5393 59.3719 40.7774 59.1718 40.9775C58.9717 41.1776 58.7336 41.3358 58.4715 41.4427C58.2095 41.5496 57.9287 41.6031 57.6457 41.6H54.8571C54.8571 37.7143 54.8571 33.8286 54.8571 29.9657V29.92ZM8.59429 29.92H9.30286C9.30286 33.8057 9.30286 37.6914 9.30286 41.6H6.42286C6.13985 41.6031 5.85909 41.5496 5.59703 41.4427C5.33497 41.3358 5.09689 41.1776 4.89677 40.9775C4.69664 40.7774 4.5385 40.5393 4.4316 40.2772C4.32471 40.0152 4.27123 39.7344 4.27429 39.4514V34.1943C4.27126 33.6321 4.37974 33.075 4.59347 32.555C4.8072 32.0351 5.12193 31.5627 5.51944 31.1651C5.91695 30.7676 6.38935 30.4529 6.90929 30.2392C7.42924 30.0255 7.98642 29.917 8.54857 29.92H8.59429ZM42.0571 28.0457L42.9029 30.6057C43.0502 31.0274 43.3253 31.3927 43.6899 31.6508C44.0545 31.9089 44.4904 32.0469 44.9371 32.0457H50.6971V44.5029L38.4914 50.6286H29.7143C29.1856 50.6833 28.696 50.9321 28.34 51.3268C27.984 51.7215 27.787 52.2342 27.787 52.7657C27.787 53.2972 27.984 53.8099 28.34 54.2046C28.696 54.5993 29.1856 54.8481 29.7143 54.9028H38.8571C39.1909 54.9057 39.5204 54.8272 39.8171 54.6743L49.0971 50.1028C48.0542 51.9373 46.6828 53.5644 45.0514 54.9028C41.4058 58.0106 36.79 59.7486 32 59.8171C27.2495 59.7223 22.6783 57.9859 19.0629 54.9028C17.4732 53.7231 16.1534 52.2178 15.1917 50.4874C14.23 48.7571 13.6484 46.8415 13.4857 44.8686V32.0457H37.9657C38.3026 32.0489 38.6351 31.9692 38.934 31.8138C39.2329 31.6584 39.4891 31.4319 39.68 31.1543L42.0571 28.0457ZM32 13.4857C36.1848 13.4755 40.2493 14.8851 43.5293 17.4842C46.8092 20.0832 49.1105 23.7179 50.0571 27.7943H46.4229L44.7771 22.9029C44.629 22.4617 44.3417 22.0806 43.9584 21.8168C43.575 21.553 43.1164 21.4207 42.6514 21.44C42.3331 21.4539 42.022 21.5392 41.7411 21.6895C41.4602 21.8399 41.2167 22.0514 41.0286 22.3086L36.9143 27.8629H14.0571C14.9934 23.7968 17.2741 20.1654 20.5303 17.5564C23.7864 14.9473 27.8276 13.5131 32 13.4857ZM26.24 4.34286H37.6686C39.3553 4.33683 41.0265 4.66422 42.5863 5.30621C44.146 5.94821 45.5635 6.89214 46.7572 8.08375C47.951 9.27536 48.8974 10.6912 49.5422 12.2498C50.1869 13.8084 50.5173 15.479 50.5143 17.1657V18.8571C48.3987 15.9032 45.6094 13.4961 42.3776 11.8356C39.1459 10.1751 35.5648 9.30888 31.9314 9.30888C28.298 9.30888 24.717 10.1751 21.4852 11.8356C18.2535 13.4961 15.4642 15.9032 13.3486 18.8571V17.0971C13.3454 15.4008 13.6795 13.7207 14.3314 12.1545C14.9833 10.5884 15.94 9.16744 17.1459 7.9743C18.3517 6.78117 19.7828 5.83964 21.3558 5.20445C22.9288 4.56926 24.6123 4.25308 26.3086 4.27429L26.24 4.34286ZM26.24 0.0685724C21.7193 0.0745437 17.3844 1.86836 14.1813 5.05859C10.9782 8.24881 9.167 12.5765 9.14286 17.0971V25.6457H8.54857C6.2832 25.6517 4.11235 26.5543 2.51048 28.1562C0.908621 29.7581 0.00603297 31.9289 0 34.1943V39.4514C0.0119705 41.1512 0.692506 42.7779 1.89444 43.9798C3.09637 45.1818 4.72311 45.8623 6.42286 45.8743H9.28C9.57368 48.3053 10.3497 50.6533 11.5625 52.7806C12.7752 54.9079 14.4005 56.7717 16.3429 58.2628C20.7341 61.9466 26.2685 63.9907 32 64.0457C37.7601 63.9899 43.3207 61.9289 47.7257 58.2171C49.6803 56.7421 51.3187 54.8895 52.5437 52.7692C53.7687 50.649 54.5554 48.3043 54.8571 45.8743H57.6C59.2976 45.8622 60.922 45.181 62.1203 43.9784C63.3185 42.7758 63.994 41.1491 64 39.4514V34.1943C63.994 31.9329 63.0946 29.7654 61.4976 28.1642C59.9007 26.563 57.7357 25.6578 55.4743 25.6457H54.8571V17.0971C54.8391 12.5804 53.0368 8.25377 49.8429 5.05991C46.6491 1.86605 42.3225 0.0637706 37.8057 0.0457153L26.24 0.0685724Z" fill="#E74C3C"/>
</svg>
