<svg width="18" height="20" viewBox="0 0 18 20" fill="none" xmlns="http://www.w3.org/2000/svg">
<path d="M15.759 4.27693C15.6188 4.20711 15.4823 4.13058 15.3501 4.04762C14.9658 3.80295 14.6135 3.51469 14.3006 3.18903C13.517 2.326 13.2244 1.45053 13.1174 0.838144H13.1211C13.0315 0.328858 13.0684 0 13.0749 0H9.50753V13.2814C9.50753 13.4592 9.50753 13.6361 9.50015 13.8103C9.50015 13.8316 9.49738 13.8511 9.49646 13.8751C9.49646 13.884 9.49646 13.8947 9.49369 13.9045V13.9125C9.45623 14.3889 9.29774 14.8491 9.03218 15.2527C8.76662 15.6563 8.40212 15.9909 7.97075 16.2269C7.52072 16.4735 7.01172 16.6027 6.49396 16.602C4.83257 16.602 3.485 15.2972 3.485 13.6858C3.485 12.0735 4.83257 10.7688 6.49396 10.7688C6.8087 10.7688 7.1216 10.8168 7.42065 10.911L7.42526 7.41264C6.51705 7.2998 5.59441 7.3695 4.71557 7.61733C3.83674 7.86515 3.0208 8.28573 2.31926 8.8525C1.70441 9.36671 1.18747 9.98031 0.791706 10.6657C0.641258 10.9154 0.0726944 11.9207 0.00439284 13.5507C-0.0389879 14.4751 0.249909 15.435 0.387435 15.8305V15.8394C0.473274 16.0723 0.809243 16.8686 1.35566 17.5397C1.79629 18.0783 2.31691 18.5515 2.90075 18.944V18.9351L2.90905 18.944C4.63505 20.0728 6.55026 19.999 6.55026 19.999C6.88162 19.9857 7.99198 19.999 9.25279 19.424C10.6511 18.7858 11.4467 17.8357 11.4467 17.8357C11.9554 17.2678 12.3599 16.6207 12.6429 15.9221C12.966 15.1044 13.0731 14.1249 13.0731 13.7338V6.68648C13.1164 6.71137 13.6933 7.07845 13.6933 7.07845C13.6933 7.07845 14.524 7.59129 15.819 7.92459C16.7475 8.1619 18 8.21256 18 8.21256V4.80222C17.5616 4.84843 16.6709 4.71511 15.758 4.27782L15.759 4.27693Z" fill="white"/>
</svg>
